<svg width="110" height="23" viewBox="0 0 110 23" fill="none" xmlns="http://www.w3.org/2000/svg">
<path d="M0.917969 22V0.671875H8.38867C10.9766 0.671875 12.9395 1.16992 14.2773 2.16602C15.6152 3.15234 16.2842 4.60254 16.2842 6.5166C16.2842 7.56152 16.0156 8.48438 15.4785 9.28516C14.9414 10.0762 14.1943 10.6572 13.2373 11.0283C14.3311 11.3018 15.1904 11.8535 15.8154 12.6836C16.4502 13.5137 16.7676 14.5293 16.7676 15.7305C16.7676 17.7812 16.1133 19.334 14.8047 20.3887C13.4961 21.4434 11.6309 21.9805 9.20898 22H0.917969ZM5.3125 12.7129V18.4697H9.07715C10.1123 18.4697 10.918 18.2256 11.4941 17.7373C12.0801 17.2393 12.373 16.5557 12.373 15.6865C12.373 13.7334 11.3623 12.7422 9.34082 12.7129H5.3125ZM5.3125 9.60742H8.56445C10.7812 9.56836 11.8896 8.68457 11.8896 6.95605C11.8896 5.98926 11.6064 5.2959 11.04 4.87598C10.4834 4.44629 9.59961 4.23145 8.38867 4.23145H5.3125V9.60742ZM32.292 20.3887C31.2471 21.6582 29.8018 22.293 27.9561 22.293C26.2568 22.293 24.958 21.8047 24.0596 20.8281C23.1709 19.8516 22.7168 18.4209 22.6973 16.5361V6.15039H26.9307V16.3896C26.9307 18.04 27.6826 18.8652 29.1865 18.8652C30.6221 18.8652 31.6084 18.3672 32.1455 17.3711V6.15039H36.3936V22H32.4092L32.292 20.3887ZM51.1709 17.6201C51.1709 17.1025 50.9121 16.6973 50.3945 16.4043C49.8867 16.1016 49.0664 15.833 47.9336 15.5986C44.1641 14.8076 42.2793 13.2061 42.2793 10.7939C42.2793 9.3877 42.8604 8.21582 44.0225 7.27832C45.1943 6.33105 46.7227 5.85742 48.6074 5.85742C50.6191 5.85742 52.2256 6.33105 53.4268 7.27832C54.6377 8.22559 55.2432 9.45605 55.2432 10.9697H51.0098C51.0098 10.3643 50.8145 9.86621 50.4238 9.47559C50.0332 9.0752 49.4229 8.875 48.5928 8.875C47.8799 8.875 47.3281 9.03613 46.9375 9.3584C46.5469 9.68066 46.3516 10.0908 46.3516 10.5889C46.3516 11.0576 46.5713 11.4385 47.0107 11.7314C47.46 12.0146 48.2119 12.2637 49.2666 12.4785C50.3213 12.6836 51.21 12.918 51.9326 13.1816C54.1689 14.002 55.2871 15.4229 55.2871 17.4443C55.2871 18.8896 54.667 20.0615 53.4268 20.96C52.1865 21.8486 50.585 22.293 48.6221 22.293C47.2939 22.293 46.1123 22.0586 45.0771 21.5898C44.0518 21.1113 43.2461 20.4619 42.6602 19.6416C42.0742 18.8115 41.7812 17.918 41.7812 16.9609H45.7949C45.834 17.7129 46.1123 18.2891 46.6299 18.6895C47.1475 19.0898 47.8408 19.29 48.71 19.29C49.5205 19.29 50.1309 19.1387 50.541 18.8359C50.9609 18.5234 51.1709 18.1182 51.1709 17.6201ZM78.1797 19.3047C77.3887 20.252 76.2705 20.9893 74.8252 21.5166C73.3799 22.0342 71.7783 22.293 70.0205 22.293C68.1748 22.293 66.5537 21.8926 65.1572 21.0918C63.7705 20.2812 62.6963 19.1094 61.9346 17.5762C61.1826 16.043 60.7969 14.2412 60.7773 12.1709V10.7207C60.7773 8.5918 61.1338 6.75098 61.8467 5.19824C62.5693 3.63574 63.6045 2.44434 64.9521 1.62402C66.3096 0.793945 67.8965 0.378906 69.7129 0.378906C72.2422 0.378906 74.2197 0.984375 75.6455 2.19531C77.0713 3.39648 77.916 5.14941 78.1797 7.4541H73.9023C73.707 6.2334 73.2725 5.33984 72.5986 4.77344C71.9346 4.20703 71.0166 3.92383 69.8447 3.92383C68.3506 3.92383 67.2129 4.48535 66.4316 5.6084C65.6504 6.73145 65.2549 8.40137 65.2451 10.6182V11.9805C65.2451 14.2168 65.6699 15.9062 66.5195 17.0488C67.3691 18.1914 68.6143 18.7627 70.2549 18.7627C71.9053 18.7627 73.082 18.4111 73.7852 17.708V14.0312H69.7861V10.7939H78.1797V19.3047ZM83.8164 13.9287C83.8164 12.3564 84.1191 10.9551 84.7246 9.72461C85.3301 8.49414 86.1992 7.54199 87.332 6.86816C88.4746 6.19434 89.7979 5.85742 91.3018 5.85742C93.4404 5.85742 95.1836 6.51172 96.5312 7.82031C97.8887 9.12891 98.6455 10.9062 98.8018 13.1523L98.8311 14.2363C98.8311 16.668 98.1523 18.6211 96.7949 20.0957C95.4375 21.5605 93.6162 22.293 91.3311 22.293C89.0459 22.293 87.2197 21.5605 85.8525 20.0957C84.4951 18.6309 83.8164 16.6387 83.8164 14.1191V13.9287ZM88.0498 14.2363C88.0498 15.7402 88.333 16.8926 88.8994 17.6934C89.4658 18.4844 90.2764 18.8799 91.3311 18.8799C92.3564 18.8799 93.1572 18.4893 93.7334 17.708C94.3096 16.917 94.5977 15.6572 94.5977 13.9287C94.5977 12.4541 94.3096 11.3115 93.7334 10.501C93.1572 9.69043 92.3467 9.28516 91.3018 9.28516C90.2666 9.28516 89.4658 9.69043 88.8994 10.501C88.333 11.3018 88.0498 12.5469 88.0498 14.2363ZM108.745 15.4521H105.229L104.731 0.671875H109.243L108.745 15.4521ZM106.987 17.7666C107.7 17.7666 108.271 17.9766 108.701 18.3965C109.141 18.8164 109.36 19.3535 109.36 20.0078C109.36 20.6523 109.141 21.1846 108.701 21.6045C108.271 22.0244 107.7 22.2344 106.987 22.2344C106.284 22.2344 105.713 22.0244 105.273 21.6045C104.844 21.1846 104.629 20.6523 104.629 20.0078C104.629 19.3633 104.844 18.8311 105.273 18.4111C105.713 17.9814 106.284 17.7666 106.987 17.7666Z" fill="#343E4B"/>
</svg>
