<svg width="268" height="35" viewBox="0 0 268 35" fill="none" xmlns="http://www.w3.org/2000/svg">
<path d="M154.178 13.164C155.2 15.082 156.81 17.294 158.126 18.708C158.448 18.246 159.092 17.602 159.526 17.252C158.252 16.076 156.656 14.116 155.844 12.478L154.178 13.164ZM150.244 12.45C149.516 14.396 148.2 16.314 146.758 17.448C147.192 17.714 148.018 18.344 148.354 18.694C149.782 17.364 151.252 15.194 152.148 12.996L150.244 12.45ZM154.416 20.304C154.934 20.99 155.494 21.788 155.998 22.572C154.374 22.656 152.736 22.74 151.224 22.81C152.078 21.298 152.988 19.422 153.716 17.7L151.714 17.238C151.182 18.988 150.216 21.228 149.32 22.894L147.374 22.964L147.598 24.714C150.062 24.602 153.59 24.392 156.95 24.168C157.188 24.574 157.384 24.952 157.524 25.288L159.26 24.378C158.574 23.034 157.258 21.06 156.04 19.548L154.416 20.304ZM165.154 19.758V18.904H167.59V19.758H165.154ZM165.154 16.804H167.59V17.658H165.154V16.804ZM171.748 16.804V17.658H169.298V16.804H171.748ZM171.748 19.758H169.298V18.904H171.748V19.758ZM174.884 21.844H169.298V21.088H173.428V15.474H169.298V14.802H174.478V13.29H169.298V12.156H167.59V13.29H162.508V14.802H167.59V15.474H163.558V21.088H167.59V21.844H162.172V23.342H167.59V25.232H169.298V23.342H174.884V21.844ZM181.716 22.32H184.25V21.144H181.716V20.598H184.194V16.272H181.716V15.726H184.404V16.818H185.678C185.58 19.324 185.244 21.326 184.152 22.838C183.34 22.908 182.514 22.978 181.716 23.034V22.32ZM179.112 19.562V18.932H180.204V19.562H179.112ZM182.808 18.932V19.562H181.716V18.932H182.808ZM181.716 17.938V17.322H182.808V17.938H181.716ZM179.112 17.322H180.204V17.938H179.112V17.322ZM187.302 15.292C187.33 14.368 187.33 13.388 187.33 12.366H185.734C185.734 13.402 185.734 14.368 185.72 15.292H184.404V14.522H181.716V13.836C182.626 13.738 183.494 13.612 184.236 13.458L183.508 12.212C181.968 12.548 179.546 12.786 177.474 12.898C177.628 13.22 177.782 13.738 177.838 14.074C178.594 14.06 179.392 14.018 180.204 13.962V14.522H177.446V15.726H180.204V16.272H177.796V20.598H180.204V21.144H177.74V22.32H180.204V23.16C179.126 23.23 178.146 23.3 177.362 23.356L177.558 24.756C179.07 24.63 181.086 24.42 183.102 24.21C183.466 24.518 183.872 24.98 184.082 25.316C186.434 23.454 187.078 20.57 187.26 16.818H188.52C188.436 21.34 188.296 23.048 188.002 23.426C187.876 23.608 187.736 23.664 187.526 23.664C187.26 23.664 186.728 23.65 186.112 23.594C186.392 24.056 186.574 24.728 186.602 25.19C187.274 25.204 187.918 25.218 188.338 25.134C188.8 25.036 189.122 24.896 189.444 24.434C189.892 23.79 190.004 21.76 190.13 16.034C190.13 15.838 190.144 15.292 190.144 15.292H187.302ZM203.794 16.678C204.956 16.678 205.39 16.314 205.544 14.942C205.124 14.872 204.508 14.648 204.2 14.438C204.158 15.236 204.06 15.362 203.64 15.362H201.988C201.428 15.362 201.358 15.306 201.358 14.928V14.536C202.576 14.284 203.962 13.92 205.012 13.472L203.864 12.478C203.262 12.8 202.31 13.122 201.358 13.374V12.24H199.818V14.928C199.818 16.272 200.196 16.678 201.792 16.678H203.794ZM203.864 21.41C205.04 21.41 205.474 21.018 205.628 19.59C205.222 19.52 204.592 19.296 204.284 19.072C204.228 19.94 204.144 20.08 203.71 20.08H202.002C201.428 20.08 201.358 20.038 201.358 19.618V19.254C202.646 19.002 204.088 18.61 205.166 18.12L204.018 17.126C203.374 17.476 202.366 17.812 201.358 18.078V16.804H199.818V19.632C199.818 20.99 200.196 21.41 201.806 21.41H203.864ZM193.056 15.25C194.456 15.194 196.346 15.138 198.208 15.04C198.32 15.25 198.432 15.446 198.502 15.628L199.748 14.928C199.44 14.256 198.67 13.29 197.97 12.604L196.808 13.22C196.99 13.416 197.186 13.64 197.368 13.864L195.646 13.906C195.968 13.458 196.304 12.954 196.612 12.464L194.974 12.072C194.764 12.618 194.414 13.332 194.064 13.948L192.986 13.962L193.056 15.25ZM194.064 24.966C195.086 24.35 195.702 23.356 196.08 22.32L194.666 21.788C194.344 22.684 193.658 23.538 192.762 24.056L194.064 24.966ZM195.184 18.722V18.204H197.452V18.722H195.184ZM197.452 16.818V17.308H195.184V16.818H197.452ZM197.816 21.69C198.572 22.068 199.454 22.712 199.846 23.188L200.924 22.18C200.476 21.704 199.58 21.13 198.852 20.78C198.922 20.598 198.95 20.374 198.95 20.066V15.74H193.7V21.41H195.184V19.646H197.452V20.066C197.452 20.206 197.396 20.248 197.242 20.262C197.13 20.262 196.654 20.262 196.234 20.248C196.402 20.542 196.598 21.018 196.668 21.382C197.382 21.382 197.942 21.368 198.348 21.2L197.816 21.69ZM198.838 23.748C198.222 23.748 198.096 23.706 198.096 23.342V21.942H196.472V23.356C196.472 24.672 196.906 25.078 198.642 25.078H200.938C202.198 25.078 202.646 24.7 202.814 23.216C202.394 23.132 201.736 22.922 201.414 22.684C201.358 23.608 201.26 23.748 200.756 23.748H198.838ZM202.17 22.39C203.08 23.146 204.046 24.238 204.396 24.994L205.838 24.182C205.418 23.37 204.41 22.362 203.486 21.662L202.17 22.39ZM211.48 24.98C212.278 24.322 212.698 23.244 212.992 22.236L211.648 21.774C211.396 22.684 210.92 23.608 210.22 24.182L211.48 24.98ZM213.006 14.48H215.176C214.728 15.53 214 16.58 213.188 17.294V16.174C213.496 15.726 213.762 15.25 214 14.788L213.006 14.48ZM210.64 14.48H212.586C212.124 15.404 211.424 16.328 210.64 17.028V14.48ZM216.17 15.6C216.324 15.306 216.478 14.998 216.604 14.704L215.806 14.48H217.724C217.64 14.816 217.444 15.25 217.248 15.6H216.17ZM217.066 17.056H215.862V16.566H217.066V17.056ZM217.066 18.4H215.862V17.868H217.066V18.4ZM217.066 19.758H215.862V19.198H217.066V19.758ZM214.49 20.766H214.896L214.21 21.396C215.05 21.802 216.03 22.46 216.506 22.936L217.514 21.956C217.108 21.592 216.366 21.13 215.694 20.766H220.888V19.758H218.452V19.198H220.342V18.4H218.452V17.868H220.342V17.056H218.452V16.566H220.72V15.6H218.718C218.886 15.362 219.068 15.082 219.25 14.802L217.864 14.48H221.07V13.122H216.002V12.156H214.266V13.122H209.114V17.224C209.114 19.296 209.044 22.236 208.022 24.266C208.358 24.434 209.016 24.938 209.282 25.232C210.332 23.23 210.598 20.15 210.64 17.896C210.85 18.12 211.06 18.344 211.172 18.484C211.382 18.302 211.592 18.106 211.802 17.896V21.018H213.188V17.392C213.51 17.616 214.014 18.022 214.224 18.274C214.308 18.19 214.406 18.092 214.49 17.994V20.766ZM215.526 23.832C215.064 23.832 214.98 23.79 214.98 23.44V21.928H213.468V23.468C213.468 24.728 213.818 25.134 215.33 25.134H217.108C218.2 25.134 218.62 24.77 218.774 23.328C218.368 23.244 217.752 23.02 217.458 22.81C217.402 23.706 217.332 23.832 216.94 23.832H215.526ZM218.046 22.194C218.802 23.062 219.572 24.252 219.866 25.036L221.266 24.35C220.944 23.524 220.104 22.404 219.348 21.578L218.046 22.194ZM231.08 19.562V17.84H234.034V19.562H231.08ZM226.726 19.562C226.754 19.044 226.768 18.54 226.768 18.092V17.84H229.4V19.562H226.726ZM229.4 14.662V16.286H226.768V14.662H229.4ZM234.034 16.286H231.08V14.662H234.034V16.286ZM235.686 13.08H225.116V18.078C225.116 20.038 224.99 22.53 223.464 24.21C223.842 24.406 224.514 24.98 224.78 25.288C225.788 24.196 226.292 22.656 226.544 21.13H229.4V25.036H231.08V21.13H234.034V23.23C234.034 23.482 233.936 23.566 233.67 23.566C233.418 23.566 232.494 23.58 231.71 23.538C231.92 23.972 232.186 24.686 232.242 25.134C233.502 25.148 234.356 25.12 234.93 24.84C235.49 24.588 235.686 24.14 235.686 23.244V13.08ZM241.972 21.438C241.244 22.334 240.026 23.286 238.892 23.874C239.312 24.14 240.04 24.7 240.39 25.022C241.482 24.322 242.826 23.174 243.694 22.068L241.972 21.438ZM252.094 20.71C251.408 19.758 249.952 18.372 248.818 17.434L247.446 18.302C247.768 18.582 248.118 18.904 248.468 19.24C247.18 19.282 245.892 19.31 244.66 19.324C246.172 18.176 247.796 16.79 249.098 15.446L247.502 14.578C246.676 15.53 245.556 16.608 244.408 17.588C244.1 17.322 243.722 17.042 243.33 16.762C244.072 16.09 244.898 15.236 245.598 14.41L245.556 14.382C247.502 14.228 249.392 14.004 250.96 13.668L249.784 12.268C247.292 12.772 243.19 13.066 239.592 13.136C239.76 13.528 239.956 14.2 239.998 14.634C241.048 14.62 242.168 14.592 243.288 14.536C242.91 15.012 242.462 15.488 242.056 15.908C241.804 15.754 241.58 15.614 241.356 15.488L240.208 16.552C241.16 17.14 242.294 17.98 243.064 18.68C242.742 18.932 242.42 19.17 242.112 19.38C241.034 19.394 240.04 19.408 239.186 19.422L239.326 21.088C240.782 21.046 242.616 21.004 244.576 20.934V25.218H246.354V20.878C247.516 20.836 248.692 20.78 249.868 20.738C250.162 21.088 250.428 21.424 250.61 21.718L252.094 20.71ZM247.166 22.306C248.286 23.09 249.728 24.238 250.372 24.994L251.87 23.93C251.142 23.16 249.658 22.068 248.552 21.354L247.166 22.306ZM259.794 18.82C261.376 18.694 263.56 18.512 265.646 18.344C265.856 18.708 266.024 19.044 266.15 19.338L267.522 18.596C267.144 17.7 266.206 16.37 265.422 15.404L264.148 16.09C264.358 16.37 264.568 16.664 264.778 16.972C263.994 17.028 263.21 17.084 262.454 17.14C262.734 16.552 263.042 15.88 263.322 15.25H267.242V13.766H264.12V12.142H262.426V13.766H259.57V15.25H261.46C261.278 15.908 261.012 16.636 260.76 17.252C260.368 17.28 259.99 17.294 259.654 17.308L259.794 18.82ZM254.894 20.332C254.782 21.508 254.558 22.754 254.152 23.58C254.516 23.706 255.132 24 255.426 24.182C255.832 23.286 256.126 21.886 256.266 20.57L254.894 20.332ZM258.618 19.45C258.702 19.716 258.758 19.954 258.8 20.164L259.976 19.632C259.822 18.834 259.276 17.616 258.744 16.664L257.638 17.126C257.806 17.434 257.974 17.784 258.128 18.134L256.784 18.19C257.666 17.056 258.632 15.642 259.402 14.424L258.044 13.794C257.722 14.48 257.274 15.278 256.798 16.062C256.658 15.894 256.504 15.698 256.322 15.502C256.826 14.718 257.386 13.64 257.89 12.688L256.448 12.156C256.21 12.898 255.818 13.822 255.426 14.592C255.314 14.494 255.202 14.396 255.104 14.312L254.306 15.446C254.88 16.006 255.552 16.748 255.958 17.35C255.734 17.672 255.51 17.98 255.3 18.246L254.292 18.288L254.432 19.73L256.462 19.604V25.232H257.904V19.506L258.618 19.45ZM259.976 22.74C259.822 22.04 259.458 21.018 259.108 20.22L257.932 20.584C258.254 21.41 258.618 22.488 258.744 23.188L259.976 22.74ZM261.124 19.198C261.04 21.634 260.858 23.132 258.744 24.014C259.08 24.294 259.5 24.868 259.682 25.246C262.216 24.14 262.594 22.166 262.706 19.198H261.124ZM265.478 23.664C265.282 23.664 265.254 23.622 265.254 23.216V19.184H263.686V23.23C263.686 24.644 263.966 25.12 265.184 25.12H266.108C267.116 25.12 267.494 24.588 267.62 22.558C267.2 22.446 266.542 22.194 266.234 21.928C266.206 23.44 266.164 23.664 265.94 23.664H265.478Z" fill="#343E4B"/>
<path d="M1.91797 28V6.67188H9.38867C11.9766 6.67188 13.9395 7.16992 15.2773 8.16602C16.6152 9.15234 17.2842 10.6025 17.2842 12.5166C17.2842 13.5615 17.0156 14.4844 16.4785 15.2852C15.9414 16.0762 15.1943 16.6572 14.2373 17.0283C15.3311 17.3018 16.1904 17.8535 16.8154 18.6836C17.4502 19.5137 17.7676 20.5293 17.7676 21.7305C17.7676 23.7812 17.1133 25.334 15.8047 26.3887C14.4961 27.4434 12.6309 27.9805 10.209 28H1.91797ZM6.3125 18.7129V24.4697H10.0771C11.1123 24.4697 11.918 24.2256 12.4941 23.7373C13.0801 23.2393 13.373 22.5557 13.373 21.6865C13.373 19.7334 12.3623 18.7422 10.3408 18.7129H6.3125ZM6.3125 15.6074H9.56445C11.7812 15.5684 12.8896 14.6846 12.8896 12.9561C12.8896 11.9893 12.6064 11.2959 12.04 10.876C11.4834 10.4463 10.5996 10.2314 9.38867 10.2314H6.3125V15.6074ZM33.292 26.3887C32.2471 27.6582 30.8018 28.293 28.9561 28.293C27.2568 28.293 25.958 27.8047 25.0596 26.8281C24.1709 25.8516 23.7168 24.4209 23.6973 22.5361V12.1504H27.9307V22.3896C27.9307 24.04 28.6826 24.8652 30.1865 24.8652C31.6221 24.8652 32.6084 24.3672 33.1455 23.3711V12.1504H37.3936V28H33.4092L33.292 26.3887ZM52.1709 23.6201C52.1709 23.1025 51.9121 22.6973 51.3945 22.4043C50.8867 22.1016 50.0664 21.833 48.9336 21.5986C45.1641 20.8076 43.2793 19.2061 43.2793 16.7939C43.2793 15.3877 43.8604 14.2158 45.0225 13.2783C46.1943 12.3311 47.7227 11.8574 49.6074 11.8574C51.6191 11.8574 53.2256 12.3311 54.4268 13.2783C55.6377 14.2256 56.2432 15.4561 56.2432 16.9697H52.0098C52.0098 16.3643 51.8145 15.8662 51.4238 15.4756C51.0332 15.0752 50.4229 14.875 49.5928 14.875C48.8799 14.875 48.3281 15.0361 47.9375 15.3584C47.5469 15.6807 47.3516 16.0908 47.3516 16.5889C47.3516 17.0576 47.5713 17.4385 48.0107 17.7314C48.46 18.0146 49.2119 18.2637 50.2666 18.4785C51.3213 18.6836 52.21 18.918 52.9326 19.1816C55.1689 20.002 56.2871 21.4229 56.2871 23.4443C56.2871 24.8896 55.667 26.0615 54.4268 26.96C53.1865 27.8486 51.585 28.293 49.6221 28.293C48.2939 28.293 47.1123 28.0586 46.0771 27.5898C45.0518 27.1113 44.2461 26.4619 43.6602 25.6416C43.0742 24.8115 42.7812 23.918 42.7812 22.9609H46.7949C46.834 23.7129 47.1123 24.2891 47.6299 24.6895C48.1475 25.0898 48.8408 25.29 49.71 25.29C50.5205 25.29 51.1309 25.1387 51.541 24.8359C51.9609 24.5234 52.1709 24.1182 52.1709 23.6201ZM79.1797 25.3047C78.3887 26.252 77.2705 26.9893 75.8252 27.5166C74.3799 28.0342 72.7783 28.293 71.0205 28.293C69.1748 28.293 67.5537 27.8926 66.1572 27.0918C64.7705 26.2812 63.6963 25.1094 62.9346 23.5762C62.1826 22.043 61.7969 20.2412 61.7773 18.1709V16.7207C61.7773 14.5918 62.1338 12.751 62.8467 11.1982C63.5693 9.63574 64.6045 8.44434 65.9521 7.62402C67.3096 6.79395 68.8965 6.37891 70.7129 6.37891C73.2422 6.37891 75.2197 6.98437 76.6455 8.19531C78.0713 9.39648 78.916 11.1494 79.1797 13.4541H74.9023C74.707 12.2334 74.2725 11.3398 73.5986 10.7734C72.9346 10.207 72.0166 9.92383 70.8447 9.92383C69.3506 9.92383 68.2129 10.4854 67.4316 11.6084C66.6504 12.7314 66.2549 14.4014 66.2451 16.6182V17.9805C66.2451 20.2168 66.6699 21.9062 67.5195 23.0488C68.3691 24.1914 69.6143 24.7627 71.2549 24.7627C72.9053 24.7627 74.082 24.4111 74.7852 23.708V20.0312H70.7861V16.7939H79.1797V25.3047ZM84.8164 19.9287C84.8164 18.3564 85.1191 16.9551 85.7246 15.7246C86.3301 14.4941 87.1992 13.542 88.332 12.8682C89.4746 12.1943 90.7979 11.8574 92.3018 11.8574C94.4404 11.8574 96.1836 12.5117 97.5312 13.8203C98.8887 15.1289 99.6455 16.9062 99.8018 19.1523L99.8311 20.2363C99.8311 22.668 99.1523 24.6211 97.7949 26.0957C96.4375 27.5605 94.6162 28.293 92.3311 28.293C90.0459 28.293 88.2197 27.5605 86.8525 26.0957C85.4951 24.6309 84.8164 22.6387 84.8164 20.1191V19.9287ZM89.0498 20.2363C89.0498 21.7402 89.333 22.8926 89.8994 23.6934C90.4658 24.4844 91.2764 24.8799 92.3311 24.8799C93.3564 24.8799 94.1572 24.4893 94.7334 23.708C95.3096 22.917 95.5977 21.6572 95.5977 19.9287C95.5977 18.4541 95.3096 17.3115 94.7334 16.501C94.1572 15.6904 93.3467 15.2852 92.3018 15.2852C91.2666 15.2852 90.4658 15.6904 89.8994 16.501C89.333 17.3018 89.0498 18.5469 89.0498 20.2363ZM109.745 21.4521H106.229L105.731 6.67188H110.243L109.745 21.4521ZM107.987 23.7666C108.7 23.7666 109.271 23.9766 109.701 24.3965C110.141 24.8164 110.36 25.3535 110.36 26.0078C110.36 26.6523 110.141 27.1846 109.701 27.6045C109.271 28.0244 108.7 28.2344 107.987 28.2344C107.284 28.2344 106.713 28.0244 106.273 27.6045C105.844 27.1846 105.629 26.6523 105.629 26.0078C105.629 25.3633 105.844 24.8311 106.273 24.4111C106.713 23.9814 107.284 23.7666 107.987 23.7666Z" fill="#343E4B"/>
</svg>
